<svg width="39" height="39" viewBox="0 0 39 39" fill="none" xmlns="http://www.w3.org/2000/svg">
<path d="M10.1158 7.81824C9.48124 7.18363 8.45235 7.18363 7.81775 7.81824C7.18315 8.45284 7.18315 9.48173 7.81775 10.1163L17.2017 19.5003L7.81785 28.8841C7.18324 29.5187 7.18324 30.5476 7.81785 31.1822C8.45245 31.8168 9.48134 31.8168 10.1159 31.1822L19.4998 21.7984L28.8836 31.1822C29.5182 31.8168 30.5471 31.8168 31.1817 31.1822C31.8163 30.5476 31.8163 29.5187 31.1817 28.8841L21.7979 19.5003L31.1818 10.1163C31.8164 9.48173 31.8164 8.45284 31.1818 7.81824C30.5472 7.18363 29.5183 7.18363 28.8837 7.81824L19.4998 17.2022L10.1158 7.81824Z" fill="#6699CC"/>
</svg>
